<?xml version="1.0" encoding="UTF-8"?>
<svg id="Livello_1" xmlns="http://www.w3.org/2000/svg" version="1.1" viewBox="0 0 453 417">
  <!-- Generator: Adobe Illustrator 30.2.1, SVG Export Plug-In . SVG Version: 2.1.1 Build 1)  -->
  <defs>
    <style>
      .st0 {
        fill: #ebebeb;
      }

      .st1 {
        fill: #ca4654;
      }

      .st2 {
        fill: #cb4250;
      }

      .st3 {
        fill: #080606;
      }

      .st4 {
        fill: #e23842;
      }

      .st5 {
        fill: #c7414e;
      }

      .st6 {
        fill: #e7353d;
      }

      .st7 {
        fill: #fcf9fa;
      }

      .st8 {
        fill: #fbf9f9;
      }

      .st9 {
        fill: #e1363f;
      }
    </style>
  </defs>
  <path class="st6" d="M246.44,79.02c.2.24.58.62.67.89.22.61.72,1.42,1.31,2.01l5.31,5.33c.98.98,2.01,1.94,3.11,2.17l.57.56c.26,1.34,1.26,2.22,2.36,3.32l20.19,20.17,9.04,9.03,16.72,16.8,2.84,2.58c.96.88,5.84,6.65,8.01,8,1.43,1.6,2.85,3.13,4.39,4.66l15.25,15.16,4.5,4.53,8.27,8.25,3.54,3.5,4.02,3.97c1.31,1.3,2.62,2.63,3.89,4.03,5.66,6.22,5.6,15.71-.3,21.64l-14.96,15.01-10.06,9.91-5.99,6.12-9.31,9.15-3.52,3.52-4.23,4.22-3.79,3.79-4.24,4.24-3.76,3.75-4.22,4.22-3.8,3.81-4.42,4.43-3.57,3.57-4.44,4.44-3.33,3.33c-2.96,2.96-5.84,5.86-8.98,8.35-2,1.59-10.04,1.94-14.78-.76-2.77-1.58-4.6-4.39-6.88-6.54-2.75-2.59-5.84-4.5-7.57-8-3.67-1.62-5.5-5.19-8.27-7.7-2.97-2.7-5.58-5.35-8.32-8.14l-7.95-8.11-3.75-3.75-3.94-4.08c-1.74-1.8-4.08-3.32-5.64-5.28s-3.02-3.26-4.67-4.91l-3.74-3.75-4.24-4.25-3.5-3.52-4.46-4.49-3.77-3.77-4.23-4.22-3.53-3.53-4.48-4.5-3.48-3.5-4.5-4.51-3.3-3.29-4.72-4.7-3.2-3.21-4.81-4.81-3.98-3.99c-2.27-2.27-4.79-4.36-6.06-7.37-.46-1.07-1.4-3.2-1.38-4.25l.11-6.99.32-5.11.38-22.73.5-12.67c.18-4.56.3-8.99.3-13.59v-12.98c0-.95.47-2.68.64-3.79l1.79.28.67.56c.26,1,1.08,1.79,2.08,1.9.12.01.26,0,.32.06.02.25.05.88.31.9.19.02.58.09.73.12l.46.46c.55,1.47,2.69,3.21,4.02,3.41l.47.07c0,.33.69,1.28,1.13,1.44l5.44,1.94,1.49,1.19.03.46c1.3,4.39,5.48,7.62,10.34,8.66,7.53,1.61,15.8-3,17.75-10.74.7-2.8.29-6.03.32-8.76-1.45-4.33-8.54-12.06-12.44-10.21l-1.48.03-.77-.54c-.14-.1-.28.39-.32.53h-2.48c-1.88-1.87-9.04,3.57-10.61,6.81l-1.86,3.84-.5-.04c-.5-1.06-1.81-1.58-3.02-1.61l-.97-.88c-.37-1.34-1.51-2.37-2.9-2.49-.29-.3-.88-.83-1.2-1.13-.45-1.25-1.49-2.32-2.8-2.36-.29-.3-.87-.82-1.19-1.11-.42-1.22-1.68-2.22-2.95-2.5l-1.47-1.43c-.29-2.19.46-4.35,1.46-6.54,2.72-5.95,4.89-4.48,7.1-7.57l.47-.03,6.85-.62c4.02-.36,7.65-.46,11.64-.32,1.98.07,4.06-.27,6.02-.33l9.95-.28,8.01-.22,17.69-.39,19.09-.53,10.72-.34c6.3-.2,11.89,1.66,15.74,7.07l.72-.44ZM251.18,173.89c4.65-4.22,8.78-8.29,12.82-12.83,4.53-5.08,6.91-12.05,4.84-18.68-2.33-7.47-8.46-13.59-15.87-16.14-5.92-2.04-12.54-.43-17.45,3.44-5.71,4.51-10.83,9.69-15.37,15.26-6.73,8.26-5.77,19.05,1.44,26.48,3.95,4.07,8.45,7.47,14.42,7.92,5.42.41,10.93-1.6,15.16-5.44ZM305.16,175.04l-11.19-11.24-103.69,44.88,11.21,11.25,103.67-44.89ZM263.48,252.96c.18-.17.65-.59.98-.95.71-.34,1.62-.96,2.34-1.6l3.23-2.91c.72-.79,1.29-1.55,1.5-2.41l1.08-1.17c1.88-.96,3.15-2.89,4.55-4.69,8.41-10.82,3.85-23.39-6.47-30.82-3.14-2.26-6.45-3.93-10.55-4.15-8.66-.46-14.8,4.68-20.53,10.37-7.14,7.08-15.44,14.63-13.37,25.93,1.5,8.17,9.69,16.86,17.7,18.84l5.21.45c4.42.38,13.16-3.34,14.33-6.88Z"/>
  <path class="st0" d="M301.86,384.77c-4.21.18-8,.63-12.05.63h-52.07s-15.6-.56-15.6-.56l-9.61-.59-18.36-1.5c-5.32-.43-10.41-1.39-15.7-2.17-3.95-.58-13.68-2.15-15.45-6.05.73-3.41,9.71-4.93,12.92-5.51l4.96-.9c2.3-.42,4.64-.91,7.04-1.14l7.99-.75,10.06-.91,19.25-1.17,19.25-.65,31.47-.08,16.05.29,9.44.37,7.01.48,6.52.47,18.69,1.71c2.01.18,4.08.4,5.94.76l10.46,1.99c3.19.61,7.28,2.21,9.95,3.75.53.31.5,2.21.08,2.64-1.89,1.93-8.44,3.34-11.42,3.94l-4.17.84c-6.89,1.38-24.87,3.31-32,3.62l-10.66.47Z"/>
  <path class="st3" d="M153.5,73.05c-2.8,1.16-5.94.98-8.99.84l-26.16-30.2c-2.97-3.43-7.46-5.15-11.8-5.34-6.89-.3-12.26,4.78-12.22,11.67.02,4.86,2.04,9.61,5.82,12.86l29.71,25.55,1.12,1.12,1.47,1.43c.93.91,1.87,1.81,2.95,2.5.32.3.9.82,1.19,1.11.87.9,1.75,1.75,2.8,2.36.32.3.91.83,1.2,1.13.71.74,1.98,1.95,2.9,2.49l.97.88c.63.96,1.82,1.51,3.02,1.61l.5.04c.26.12.77.29,1,.45,2.01,1.41,7.03,1.01,9.03-1.28,2.29-2.63,2.97-5.92,1.98-9.26l.47-.56h2.48s1.09.01,1.09.01l1.48-.03,1.53,1.01c.61,4.81-.98,9.59-4.56,13.17-3.27,3.27-8.21,5.12-13.07,4.55-2.64-.31-5.48-1.82-7.96-2.72l-.47-.07c-1.01-1.34-2.53-2.59-4.02-3.41l-.46-.46-1.04-1.02c-.06-.05-.2-.04-.32-.06-.39-.85-1.18-1.57-2.08-1.9l-.67-.56c-.48-1.13-1.97-1.69-2.77-2.4l-34.58-30.59c-4.64-4.1-7.17-9.83-7.46-15.96-.51-10.83,7.52-19.91,18.43-20.4,6.75-.3,13.45,2.29,17.93,7.45l29.57,33.99Z"/>
  <path class="st5" d="M132.38,100.97l-1.79-.28c-.17,1.1-.64,2.84-.64,3.79v12.98c0,4.6-.11,9.03-.29,13.59l-.5,12.67-.38,22.73-.32,5.11-.11,6.99c-.02,1.05.93,3.17,1.38,4.25,1.28,3,3.79,5.09,6.06,7.37l3.98,3.99,4.81,4.81,3.2,3.21,4.72,4.7,3.3,3.29,4.5,4.51,3.48,3.5,4.48,4.5,3.53,3.53,4.23,4.22,3.77,3.77,4.46,4.49,3.5,3.52,4.24,4.25,3.74,3.75c1.65,1.65,3.17,3.04,4.67,4.91s3.9,3.47,5.64,5.28l3.94,4.08,3.75,3.75,7.95,8.11c2.73,2.79,5.35,5.44,8.32,8.14,2.77,2.52,4.6,6.08,8.27,7.7,1.72,3.5,4.82,5.42,7.57,8,2.29,2.15,4.11,4.96,6.88,6.54,4.74,2.7,12.78,2.34,14.78.76l-.02.42c-6.13,3.28-13.6,1.87-18.76-3.3l-116.6-116.6c-3.13-3.13-4.69-7.21-4.6-11.54l.54-25.5,1.1-43.89.46-8.5c.8.71,2.29,1.26,2.77,2.4Z"/>
  <path class="st2" d="M267.49,307.89l.02-.42c3.15-2.49,6.03-5.4,8.98-8.35l3.33-3.33,4.44-4.44,3.57-3.57,4.42-4.43,3.8-3.81,4.22-4.22,3.76-3.75,4.24-4.24,3.79-3.79,4.23-4.22,3.52-3.52,9.31-9.15,5.99-6.12,10.06-9.91,14.96-15.01c5.9-5.92,5.96-15.42.3-21.64-1.27-1.39-2.57-2.73-3.89-4.03l-4.02-3.97-3.54-3.5-8.27-8.25-4.5-4.53-15.25-15.16c-1.53-1.53-2.96-3.06-4.39-4.66-2.16-1.35-7.04-7.12-8.01-8l-2.84-2.58-16.72-16.8-9.04-9.03-20.19-20.17c-1.1-1.1-2.1-1.98-2.36-3.32l102.65,102.35c7.08,7.06,7.23,17.4.13,24.5l-88.86,88.85c-1.18,1.18-2.69,1.61-3.84,2.22Z"/>
  <path class="st5" d="M246.44,79.02l-.72.44c-3.85-5.41-9.45-7.27-15.74-7.07l-10.72.34-19.09.53-17.69.39-8.01.22-9.95.28c-1.96.05-4.04.4-6.02.33-4-.14-7.62-.04-11.64.32l-6.85.62c.92-1.14,2.94-1.58,4.51-1.51,3.04.14,6.19.32,8.99-.84,1.37.24,2.83.39,4.47.34l46.01-1.27,19.05-.51c11.38-.3,16.18-1.29,23.42,7.39Z"/>
  <path class="st2" d="M256.84,89.42c-1.1-.24-2.14-1.19-3.11-2.17l-5.31-5.33c-.58-.59-1.09-1.4-1.31-2.01,2.89,2.25,7.3,7.13,9.73,9.51Z"/>
  <path class="st7" d="M251.18,173.89c-4.23,3.84-9.73,5.85-15.16,5.44-5.97-.45-10.47-3.85-14.42-7.92-7.21-7.43-8.17-18.22-1.44-26.48,4.53-5.56,9.66-10.75,15.37-15.26,4.91-3.87,11.53-5.48,17.45-3.44,7.41,2.55,13.54,8.67,15.87,16.14,2.07,6.63-.31,13.6-4.84,18.68-4.05,4.54-8.18,8.61-12.82,12.83ZM232.44,162.3c2.58,2.68,6.56,2.94,9.23.29l10.72-10.64c2.99-2.96,2.85-7.02.07-9.7s-6.79-2.44-9.73.54l-10.38,10.49c-2.58,2.6-2.48,6.33.1,9.01Z"/>
  <path class="st7" d="M272.6,243.91l-1.08,1.17c-2.69,2.22-4.93,4.56-7.06,6.93-.33.36-.8.78-.98.95l-4.54,3.03c-6.78,4.61-15.41,3.96-21.89-1.01-4.03-3.09-7.53-6.93-9.26-11.86-2.34-6.69-.54-14.25,4.38-19.53,4.44-4.77,8.87-9.45,13.69-13.56,8.51-7.26,20.03-6.16,27.4,1.68,3.29,3.49,6.37,6.97,7.12,12,1.2,8.11-2.62,14.63-7.77,20.21ZM252.73,242.36l11.26-11.23c2.7-2.69,2.22-6.39-.2-8.93s-6.38-3.11-9.13-.36l-11.33,11.36c-2.54,2.55-2.18,6-.04,8.51,2.36,2.77,6.49,3.6,9.44.66Z"/>
  <polygon class="st8" points="305.16 175.04 201.49 219.93 190.28 208.68 293.97 163.8 305.16 175.04"/>
  <path class="st5" d="M149.53,113.49c.54.6,1.14,1.32,1.76,2.13,4.02,5.24,10.57,7.36,16.85,4.96,5.52-2.1,9.73-7.72,9.36-14.21-.34-5.84-4.37-11.96-10.47-12.93l-1.53-1.01c3.89-1.84,10.99,5.88,12.44,10.21-.02,2.73.39,5.96-.32,8.76-1.95,7.74-10.22,12.35-17.75,10.74-4.86-1.04-9.04-4.27-10.34-8.66Z"/>
  <path class="st1" d="M272.6,243.91c5.15-5.58,8.97-12.09,7.77-20.21-.74-5.03-3.83-8.51-7.12-12-7.37-7.83-18.89-8.94-27.4-1.68-4.83,4.12-9.25,8.8-13.69,13.56-4.92,5.27-6.72,12.84-4.38,19.53,1.73,4.93,5.23,8.77,9.26,11.86,6.48,4.97,15.11,5.62,21.89,1.01l4.54-3.03c-1.17,3.54-9.91,7.26-14.33,6.88l-5.21-.45c-8.01-1.98-16.2-10.67-17.7-18.84-2.07-11.31,6.23-18.85,13.37-25.93,5.74-5.69,11.87-10.84,20.53-10.37,4.1.22,7.41,1.89,10.55,4.15,10.33,7.44,14.88,20.01,6.47,30.82-1.4,1.81-2.67,3.73-4.55,4.69Z"/>
  <path class="st5" d="M160.46,92.46l-.47.56c-5.34.84-10,5.24-11.01,10.54-.23-.16-.73-.33-1-.45l1.86-3.84c1.57-3.24,8.74-8.68,10.61-6.82Z"/>
  <path class="st5" d="M139.54,75.43c-2.21,3.09-4.38,1.63-7.1,7.57-1,2.19-1.75,4.35-1.46,6.54l-1.12-1.12c.55-5.67,4.32-11.04,9.67-12.99Z"/>
  <path class="st5" d="M149.4,111.17l.1,1.86-1.49-1.19-5.44-1.94c-.43-.16-1.13-1.11-1.13-1.44,2.48.89,5.32,2.41,7.96,2.72Z"/>
  <path class="st5" d="M140.97,108.38c-1.33-.19-3.47-1.93-4.02-3.41,1.49.82,3.01,2.07,4.02,3.41Z"/>
  <path class="st5" d="M143.5,100.58c-.92-.54-2.19-1.75-2.9-2.49,1.39.11,2.54,1.15,2.9,2.49Z"/>
  <path class="st5" d="M139.39,96.96c-1.05-.61-1.93-1.46-2.8-2.36,1.31.05,2.35,1.11,2.8,2.36Z"/>
  <path class="st1" d="M264.46,252.01c2.14-2.37,4.37-4.71,7.06-6.93-.2.87-.78,1.62-1.5,2.41l-3.23,2.91c-.72.64-1.62,1.26-2.34,1.6Z"/>
  <path class="st5" d="M147.48,103.07c-1.2-.1-2.39-.65-3.02-1.61,1.21.03,2.52.55,3.02,1.61Z"/>
  <path class="st5" d="M135.13,103.43c-1-.11-1.82-.91-2.08-1.9.89.33,1.69,1.05,2.08,1.9Z"/>
  <path class="st5" d="M135.4,93.49c-1.08-.7-2.02-1.59-2.95-2.5,1.27.29,2.53,1.28,2.95,2.5Z"/>
  <path class="st5" d="M136.49,104.51c-.15-.03-.54-.11-.73-.12-.27-.02-.29-.65-.31-.9l1.04,1.02Z"/>
  <path class="st5" d="M164.03,92.47h-1.09c.03-.14.17-.64.32-.54l.77.54Z"/>
  <path class="st9" d="M232.44,162.3c-2.58-2.69-2.68-6.41-.1-9.01l10.38-10.49c2.94-2.98,6.85-3.32,9.73-.54s2.91,6.73-.07,9.7l-10.72,10.64c-2.67,2.65-6.65,2.39-9.23-.29Z"/>
  <path class="st4" d="M252.73,242.36c-2.95,2.94-7.08,2.1-9.44-.66-2.15-2.51-2.5-5.97.04-8.51l11.33-11.36c2.74-2.75,6.66-2.23,9.13.36s2.9,6.24.2,8.93l-11.26,11.23Z"/>
</svg>
